Coordinates
version=1
nRows=14
nColumns=63
inDegrees=yes

Units are S.I. units (second, meters, Newtons, ...)
If the header above contains a line with 'inDegrees', this indicates whether rotational values are in degrees (yes) or radians (no).

endheader
time	pelvis_tilt	pelvis_list	pelvis_rotation	pelvis_tx	pelvis_ty	pelvis_tz	hip_flexion_r	hip_adduction_r	hip_rotation_r	knee_angle_r	knee_angle_r_beta	ankle_angle_r	subtalar_angle_r	mtp_angle_r	hip_flexion_l	hip_adduction_l	hip_rotation_l	knee_angle_l	knee_angle_l_beta	ankle_angle_l	subtalar_angle_l	mtp_angle_l	L5_S1_Flex_Ext	L5_S1_Lat_Bending	L5_S1_axial_rotation	L4_L5_Flex_Ext	L4_L5_Lat_Bending	L4_L5_axial_rotation	L3_L4_Flex_Ext	L3_L4_Lat_Bending	L3_L4_axial_rotation	L2_L3_Flex_Ext	L2_L3_Lat_Bending	L2_L3_axial_rotation	L1_L2_Flex_Ext	L1_L2_Lat_Bending	L1_L2_axial_rotation	L1_T12_Flex_Ext	L1_T12_Lat_Bending	L1_T12_axial_rotation	Abs_r3	Abs_r2	Abs_r1	Abs_t1	Abs_t2	neck_flexion	neck_bending	neck_rotation	arm_flex_r	arm_add_r	arm_rot_r	elbow_flex_r	pro_sup_r	wrist_flex_r	wrist_dev_r	arm_flex_l	arm_add_l	arm_rot_l	elbow_flex_l	pro_sup_l	wrist_flex_l	wrist_dev_l
0.000000	4.810113	-2.035110	104.833779	0.239840	0.734587	0.596307	0.982037	2.056124	-25.196959	13.023938	0.227311	34.132429	13.816107	0.000000	-0.561353	-4.331880	17.232817	1.770345	0.030898	34.121094	-2.848042	0.000000	0.035606	0.568389	-2.379633	0.066124	0.755957	-2.528360	0.058497	1.381981	-2.528360	0.040694	1.381981	-2.082179	0.033064	1.159059	-1.933452	0.020345	0.880434	-1.784725	0.254331	6.429730	-13.234806	0.000000	0.000000	24.984293	2.043207	3.948017	12.231583	-14.244172	31.556980	61.209237	44.168681	-2.541922	18.385724	13.519261	-6.237663	40.286896	56.407332	87.867168	-4.524836	4.006947
0.019231	4.747312	-1.658538	104.433580	0.241465	0.735912	0.593655	0.337386	2.576433	-21.783717	12.374380	0.215974	33.266027	9.649631	0.000000	-1.172111	-4.416511	17.007791	1.835268	0.032031	34.118773	-3.208858	0.000000	0.036967	0.536468	-2.311870	0.068652	0.713502	-2.456362	0.060733	1.304367	-2.456362	0.042250	1.304367	-2.022886	0.034328	1.093965	-1.878394	0.021123	0.830988	-1.733903	0.264053	6.068629	-12.857928	0.000000	0.000000	24.796143	2.326839	3.731498	11.189870	-13.941868	32.779940	60.286061	41.837694	-1.258577	19.520964	13.155675	-7.026335	41.845114	55.930737	87.863540	-5.719274	2.118174
0.038462	4.697844	-1.401523	104.052920	0.242844	0.736895	0.591747	-0.095181	2.972590	-19.013754	11.890397	0.207527	32.617526	6.365389	0.000000	-1.592119	-4.467374	16.725816	1.927271	0.033637	34.135016	-3.430388	0.000000	0.039642	0.512113	-2.246449	0.073619	0.681111	-2.386852	0.065128	1.245153	-2.386852	0.045307	1.245153	-1.965643	0.036812	1.044302	-1.825240	0.022651	0.793264	-1.684837	0.283159	5.793129	-12.494077	0.000000	0.000000	24.690442	2.588613	3.586277	10.428836	-13.688921	33.782498	59.510646	39.962477	-0.237146	20.178821	12.914896	-7.629899	43.128555	55.458001	87.811156	-6.708966	0.540525
0.057692	4.660967	-1.251804	103.694718	0.243993	0.737571	0.590513	-0.337617	3.256513	-16.835450	11.555731	0.201686	32.165875	3.885818	0.000000	-1.839642	-4.488564	16.396605	2.043383	0.035664	34.167851	-3.526029	0.000000	0.043377	0.494669	-2.184008	0.080555	0.657910	-2.320509	0.071264	1.202739	-2.320509	0.049575	1.202739	-1.911007	0.040280	1.008729	-1.774507	0.024785	0.766243	-1.638006	0.309836	5.595797	-12.146799	0.000000	0.000000	24.656750	2.828728	3.503598	9.921079	-13.480917	34.582613	58.869535	38.515498	0.546089	20.410877	12.784338	-8.064627	44.158092	54.989981	87.715169	-7.509578	-0.751715
0.076923	4.635941	-1.197119	103.361892	0.244929	0.737973	0.589883	-0.411877	3.440121	-15.197184	11.354122	0.198167	31.890018	2.133355	0.000000	-1.932943	-4.484175	16.029869	2.180633	0.038059	34.215309	-3.509176	0.000000	0.047917	0.483478	-2.125185	0.088987	0.643026	-2.258009	0.078723	1.175528	-2.258009	0.054765	1.175528	-1.859536	0.044496	0.985908	-1.726712	0.027380	0.748907	-1.593888	0.342268	5.469200	-11.819639	0.000000	0.000000	24.684629	3.047384	3.474703	9.639199	-13.313440	35.198243	58.349269	37.469226	1.114843	20.268713	12.751414	-8.346790	44.954596	54.527532	87.580730	-8.136776	-1.784264
0.096154	4.622025	-1.225208	103.057362	0.245669	0.738134	0.589786	-0.339914	3.535330	-14.047339	11.269312	0.196687	31.768902	1.030435	0.000000	-1.890288	-4.458304	15.635321	2.336052	0.040772	34.275420	-3.393227	0.000000	0.053009	0.477883	-2.070615	0.098444	0.635584	-2.200029	0.087089	1.161924	-2.200029	0.060584	1.161924	-1.811788	0.049224	0.974499	-1.682375	0.030290	0.740240	-1.552962	0.378640	5.405906	-11.516141	0.000000	0.000000	24.763639	3.244782	3.490835	9.555795	-13.182075	35.647349	57.936389	36.796127	1.492836	19.803911	12.803535	-8.492660	45.538938	54.071513	87.412992	-8.606226	-2.582836
0.115385	4.618480	-1.323808	102.784046	0.246230	0.738091	0.590150	-0.143682	3.554059	-13.334293	11.285041	0.196961	31.781473	0.499494	0.000000	-1.729940	-4.415045	15.222674	2.506668	0.043750	34.346214	-3.191579	0.000000	0.058399	0.477227	-2.020938	0.108453	0.634711	-2.147247	0.095944	1.160329	-2.147247	0.066744	1.160329	-1.768321	0.054229	0.973160	-1.642012	0.033369	0.739224	-1.515704	0.417138	5.398483	-11.239852	0.000000	0.000000	24.883340	3.421120	3.543237	9.643464	-13.082407	35.947887	57.617437	36.468671	1.703783	19.068051	12.928115	-8.518508	45.931989	53.622780	87.217105	-8.933596	-3.173149
0.134615	4.624564	-1.480659	102.544865	0.246628	0.737875	0.590907	0.154865	3.508226	-13.006426	11.385052	0.198707	31.906678	0.462968	0.000000	-1.470163	-4.358494	14.801642	2.689513	0.046941	34.425723	-2.917629	0.000000	0.063832	0.480852	-1.976791	0.118543	0.639534	-2.100340	0.104870	1.169144	-2.100340	0.072954	1.169144	-1.729692	0.059275	0.980554	-1.606142	0.036474	0.744840	-1.482593	0.455947	5.439498	-10.994317	0.000000	0.000000	25.033295	3.576599	3.623150	9.874805	-13.010022	36.117818	57.378954	36.459326	1.771403	18.112715	13.112566	-8.440606	46.154621	53.182190	86.998221	-9.134552	-3.580920
0.153846	4.639537	-1.683499	102.342736	0.246881	0.737522	0.591984	0.533773	3.409750	-13.012120	11.553084	0.201639	32.123463	0.843293	0.000000	-1.129222	-4.292745	14.381935	2.881615	0.050294	34.511974	-2.584772	0.000000	0.069055	0.488103	-1.938810	0.128242	0.649177	-2.059986	0.113450	1.186774	-2.059986	0.078923	1.186774	-1.696459	0.064124	0.995340	-1.575283	0.039458	0.756072	-1.454108	0.493252	5.521519	-10.783080	0.000000	0.000000	25.203063	3.711419	3.721817	10.222417	-12.960504	36.175100	57.207482	36.740560	1.719411	16.989484	13.344301	-8.275225	46.227705	52.750600	86.761494	-9.224761	-3.831863
0.173077	4.662659	-1.920067	102.180579	0.247005	0.737066	0.593313	0.971089	3.270547	-13.299755	11.772879	0.205476	32.410773	1.562906	0.000000	-0.725380	-4.221894	13.973267	3.080003	0.053756	34.603000	-2.206407	0.000000	0.073813	0.498322	-1.907634	0.137078	0.662768	-2.026861	0.121267	1.211619	-2.026861	0.084361	1.211619	-1.669180	0.068543	1.016177	-1.549952	0.042177	0.771900	-1.430725	0.527237	5.637114	-10.609687	0.000000	0.000000	25.382206	3.825779	3.830482	10.658898	-12.929439	36.137692	57.089562	37.284841	1.571527	15.749941	13.610733	-8.038638	46.172112	52.328866	86.512074	-9.219888	-3.951697
0.192308	4.693189	-2.178101	102.061312	0.247017	0.736540	0.594821	1.444857	3.102536	-13.817709	12.028178	0.209931	32.747556	2.544243	0.000000	-0.276903	-4.150035	13.585350	3.281709	0.057277	34.696831	-1.795929	0.000000	0.077852	0.510851	-1.883899	0.144579	0.679432	-2.001643	0.127903	1.242083	-2.001643	0.088977	1.242083	-1.648412	0.072293	1.041728	-1.530668	0.044485	0.791308	-1.412924	0.556089	5.778850	-10.477683	0.000000	0.000000	25.560284	3.919880	3.940386	11.156848	-12.912410	36.023553	57.011736	38.064636	1.351466	14.445666	13.899274	-7.747116	46.008714	51.917846	86.255114	-9.135601	-3.966136
0.211538	4.722686	-2.427562	102.010823	0.246972	0.736067	0.596389	1.888121	2.944794	-14.309856	12.257068	0.213926	32.997921	3.379022	0.000000	0.180329	-4.079251	13.272562	3.491715	0.060942	34.763666	-1.387576	0.000000	0.078325	0.522481	-1.872349	0.145458	0.694900	-1.989370	0.128681	1.270360	-1.989370	0.089518	1.270360	-1.638305	0.072733	1.065443	-1.521283	0.044755	0.809323	-1.404261	0.559470	5.910410	-10.413441	0.000000	0.000000	25.649177	4.106184	4.013229	11.624013	-12.913428	35.853122	56.965993	39.004066	1.083443	13.208983	14.201801	-7.448867	45.823614	51.499597	85.982900	-8.950868	-3.951224
0.230769	4.764997	-2.679292	102.039643	0.246781	0.735579	0.597969	2.329305	2.769453	-15.097504	12.496370	0.218103	33.315385	4.527774	0.000000	0.662603	-4.019138	13.006627	3.711718	0.064782	34.860265	-0.939580	0.000000	0.080255	0.536466	-1.875569	0.149042	0.713500	-1.992792	0.131851	1.304365	-1.992792	0.091724	1.304365	-1.641123	0.074525	1.093962	-1.523900	0.045858	0.830987	-1.406677	0.573254	6.068616	-10.431352	0.000000	0.000000	25.734184	4.174016	4.085943	12.084848	-12.908655	35.621911	56.941537	40.243903	0.721746	12.006763	14.471833	-7.113587	45.497038	51.111311	85.797554	-8.716091	-3.852608
0.250000	4.822041	-2.894945	102.110573	0.246509	0.735149	0.599503	2.727133	2.614357	-15.957069	12.721723	0.222036	33.633237	5.715327	0.000000	1.109440	-3.985916	12.745464	3.917129	0.068367	34.966995	-0.474359	0.000000	0.077774	0.552518	-1.886859	0.144433	0.734848	-2.004787	0.127774	1.343391	-2.004787	0.088887	1.343391	-1.651001	0.072221	1.126694	-1.533073	0.044440	0.855850	-1.415144	0.555529	6.250189	-10.494143	0.000000	0.000000	25.840476	4.160360	4.113568	12.556840	-12.901612	35.375205	56.864877	41.740214	0.562139	10.901378	14.737150	-6.765541	45.144678	50.717114	85.524042	-8.539240	-3.813144
